<?xml version="1.0" encoding="utf-8"?>
<!-- Generator: Adobe Illustrator 20.0.0, SVG Export Plug-In . SVG Version: 6.00 Build 0)  -->
<svg version="1.1" id="Layer_1" xmlns="http://www.w3.org/2000/svg" xmlns:xlink="http://www.w3.org/1999/xlink" x="0px" y="0px"
	 viewBox="0 0 226 196.9" style="enable-background:new 0 0 226 196.9;" xml:space="preserve">
<style type="text/css">
	.st0{fill:url(#SVGID_1_);}
	.st1{fill:url(#SVGID_2_);}
	.st2{fill:url(#SVGID_3_);}
	.st3{fill:url(#SVGID_4_);}
</style>
<g>
	<linearGradient id="SVGID_1_" gradientUnits="userSpaceOnUse" x1="113" y1="196.9" x2="113" y2="-3.051758e-05">
		<stop  offset="0" style="stop-color:#D7F2F0"/>
		<stop  offset="1" style="stop-color:#256B74"/>
	</linearGradient>
	<path class="st0" d="M113,0C50.6,0,0,50.6,0,113c0,32.8,14,62.4,36.4,83.1h46.3c1.1,0.6,2.7,0.8,4.3,0.8c2.2,0,18.1-0.5,28.8-0.8
		h73.8C212,175.4,226,145.8,226,113C226,50.6,175.4,0,113,0z M78.2,192.8c-3.4,0.9-6.6,2.6-10.2,2.7c-3.6,0.1-6,0.2-6.6-0.7
		c0,0-1.5-0.3-1.1-1.8c0.3-1.5,1.5-3.3,2.4-4c0.5-0.4,1.8-0.5,3.3-0.7c-3.5-0.9-7.4-2.4-12.1-5.2c-9.2-5.4-15.9-16.2-15.9-16.2
		l0.4-0.2l-0.4-0.3l0.2-0.2l-0.6-0.2c0,0,2.3-1.3,4.1-1.1c1.9,0.2,3,0.7,7.7,5c4.8,4.4,7.8,6.2,14.6,9.8c3.2,1.7,6.1,2.2,8.4,2.4
		c-0.3-0.8-0.5-1.6-0.6-2c-0.4-1.4-1.8-3.8-2.5-4.7c-0.7-0.9-1.7-9.1-1.8-10.6c-0.1-1.5,1.4-4.9,1.7-5.6c0.3-0.7,1.4-5.1,3.9-9.7
		c2.5-4.6,8.1-3.4,8.1-3.4s0.8-0.8,1.4-2.2c0.6-1.3,0.7-5.2,0-7.6c-0.8-2.4-0.7-8-0.6-12.1c0.1-4,3.5-15.2,3.5-15.2
		s-0.1-1.8-0.3-3.7c-0.3-1.9,2.2-8.8,3.1-12.4c0.9-3.6,3.6-5.3,4.5-7c0.9-1.7,0.7-9.7,0.7-9.7c0.1-2-0.1-2.9-0.3-3.5
		c-0.3-0.2-0.4-0.4-0.4-0.4s-0.2,0.9-0.2,1.7c0,0.8,0,4-0.3,5.3c-0.2,1.3-1.6,2.9-2.9,3.5c-1.2,0.6-9.8-6.2-10.5-7.1
		c-0.7-0.9-2.7-3.2-1.8-5.7c0.9-2.5,1.6-2.6,2.4-4.1c0.9-1.5,2.4-6.6,3.1-7.9c0.7-1.3,0.9-1.8,1.8-2.2c1-0.4,2.9-0.9,4.5-2.3
		c1.5-1.4,3.9-6.3,7.8-9.3c3.9-3,8.9-3.8,9.5-4c0.6-0.2,0.6-0.6,0.6-0.6c0.7-1.5,5.6-1.5,8.6-1.3c3.1,0.2,3.9,0.9,3.9,0.9
		s2.4,0.8,3.4,1.2c1,0.4,0.8,1.3,1,3c0.2,1.6,0,4.3-0.4,6.2c-0.3,2,0.3,3.5,0.6,4.9c0.3,1.4,0.4,2.7-0.2,3c-0.5,0.3-1.5-0.1-2.7-2
		c-1.2-1.9-1.8-5.9-1.8-5.8c0,0.2,0.4,1.8,0.3,3.1c-0.1,1.3,0.6,3.3,0.7,3.8c0.1,0.5,0.6,1,0.6,1c0.5,0.4,1.6,2.1,1.7,2.6
		c0.1,0.5,0.7,1.9,1.1,2.4c0.4,0.5,1.1,1.6,1.7,3.4c0.6,1.8,1.1,4.3,1.3,5.6c0.2,1.4-0.2,2-1,2.4c-0.8,0.5-2.1,0-2.1,0
		c-0.4,0.8-1.4,1.9-3.5,3.2c-0.5,0.3-1,0.5-1.6,0.7l0.7,5.2l3.7,2.7c0,0,3,3.1,6.8,7.9c2.6,3.3,3.7,9.4,4,15.9
		c-1.4,0.3-3.1,0.7-4.1,1c0.5-0.3,1-0.7,1.4-1c1.1-1,2.1-3,2.1-3s-0.9,1.6-2,2.7c-0.5,0.5-1.3,1-2,1.4c-0.4,0.1-0.6,0.2-0.6,0.2
		s-0.4,0.1-0.7,0.3c-0.1-0.1,0-0.2,0-0.2c0-0.3-0.4-0.6-0.7-0.8h0.1c0,0,3-1.4,3.8-2.8c0,0-1.2,1.5-3.9,2.7h-0.1
		c-0.3-0.2-0.8-0.4-0.8-0.6c0-0.2-0.3-1.1-0.6-1.4c-0.3-0.2-0.8-1.8-1-2.4s-0.9-0.7-1.3-0.9c-0.4-0.2-1.1-1-1.2-1.3
		c0-0.2-0.7-0.4-0.9-0.4c0.1-0.2,0.2-0.3,0.4-0.4c-0.1,0-0.1,0.1-0.2,0.1c-0.3,0.3-0.5,0.3-0.5,0.3c0.1-0.3,0.8-0.8,0.8-0.8
		c-0.2,0.1-0.5,0.4-0.7,0.6c-0.2,0.2-0.4,0.1-0.4,0.1c0.2-0.5,1.1-1,1.1-1c-0.5,0.2-1.2,0.8-1.3,1c0-0.1,0-0.1,0-0.2
		c0.5-0.8,1.1-1.2,1.1-1.2c-0.4,0.2-0.9,0.8-1.1,1.1c0-0.1,0-0.3,0-0.5c-0.1-1.2-0.2-3.5-0.5-5.1c-0.3-2.2-1-5.5-2.2-4.4
		c-1.2,1.1-3.9,5.1-5.1,10.1L111,103l0.1-0.3l-0.5,0.3l-2.3,1c0,0-1.7-4-3.4-6.2c-1.7-2.1-3.7-2.8-4.8-1.2c-1.1,1.5-1.7,6.1-1.4,9.6
		s1.3,6.7,1.7,7.3c0,0,0.1,2.1,1.1,4.8s3.1,5.8,4,7.3c0.9,1.5,0.8,2.6,0.6,3.1s-4,6.8-4.8,8.6s-2.1,6.7-2.1,6.9
		c0,0.2-0.5,0.7-1.3,1.7c0,0-10.1,12.8-11.1,18.8l-0.9,6c0,0-1.9,6.9-1.5,12.1c0.4,5.2,0.6,6.7,0.6,6.7s-2.5,0.3-3.5,2.5h-1.2
		C79.7,192.3,79,192.6,78.2,192.8z M144.8,195.7c0,0-1.1,0.5-2.5,0.3c-1.4-0.1-2.7-0.7-2.7-0.7s-1.2,0.2-2.9-0.2
		c-0.9-0.3-3.5-1-6-1.8c0.1-0.4,0-0.8-0.2-1c-0.5-0.6-2.5-1.4-3.5-1.5l-1-0.1c0,0-0.9-0.7-1.3-2.5c-0.4-1.8-1.4-7.4-1.5-8.3
		c-0.1-1-0.5-3.6-0.5-4.1c0-0.6,0.4-4.3,0.5-4.9c0.1-1.1,0.2-5.2,0.4-7.1c0,0-0.4-0.9,0.7-3.1c0.1-0.2,0.2-0.4,0.3-0.6
		c0.4-0.8,0.7-1.5,0.9-2.1c0,0,0.2,0.5,0.3,0.8c0-0.3,0-0.8,0-1c-0.1-0.2,0-0.1,0-0.1s0.3,0.9,0.5,1c0,0-0.4-0.9-0.3-1.3
		c0.1-0.4,0.2-0.7,0.2-0.7s0,0.8,0.1,1c0,0,0.2-1.1,0.1-1.6c0,0,0.3,0.4,0.5,0.6c0-0.2,0.1-1.1,0.2-1.5c0.1-0.4,0.2-0.5,0.2-0.5
		l0.2,0.4c0,0-0.1-0.9,0-1.2c0.1-0.3,0.6-2.3,0.7-2.9c0.1-0.6,0.5-4.5-0.9-7.3c-1.4-2.8-4.8-9.8-5.3-11.6c-0.6-1.8-1.1-3.4-0.6-5.1
		c0.3-1.1,1-2.8,1.7-4c0.3-0.5,1.8-2.3,2.5-2.9c0.7-0.5,1-0.5,1.9-2.1c1-1.6,0-3.7,0-3.7l0.1-0.2c0.5-0.2,0.5-1,0.5-1s0,0,0-0.1
		c0.5,0.4,1.2,0.8,1.7,1.1c0.8,0.5,1.9,0.9,1.9,0.9s-1.1-0.5-1.7-0.8c-0.4-0.2-1.2-0.8-1.8-1.2c0.3-0.1,0.2-0.7,0.1-0.8
		c0,0,0,0,0-0.1c0.1,0,0.2,0,0.3,0c2.4,0.1,4.4,1.5,4.4,1.5c-1.4-1.3-4.4-1.7-4.4-1.7s-0.3,0-0.6,0c0-0.1,0-0.3-0.1-0.4
		c0.2-0.1,0.7-0.4,1.1-0.6c1.8-0.6,3.4-1,4.6-1.2c0.2,2.9,0.2,6,0.1,8.8c-0.2,7.5-3,12.5-4.1,14c-0.2,0.4-0.2,0.8-0.1,0.9
		c0.4,0.6,0.5,1.6,0.8,2.5c0.4,1.1,0.5,13.5,0.5,13.5c0.9,0.9,4.8,5.6,5.7,7.2c0.9,1.6,1.3,6,0.9,10.6c-0.3,3.2-4.4,10.6-6.9,14.1
		l0.2,4.3c0.9,0.6,2.6,1.5,4.3,1.6c2.5,0.1,7.5,0.2,9,2.3c1.6,2,2.5,3.3,2.4,4.6C146.5,195.9,144.8,195.7,144.8,195.7z"/>
	<linearGradient id="SVGID_2_" gradientUnits="userSpaceOnUse" x1="120.3" y1="102.05" x2="120.5" y2="102.05">
		<stop  offset="0" style="stop-color:#D7F2F0;stop-opacity:0.1"/>
		<stop  offset="1" style="stop-color:#256B74"/>
	</linearGradient>
	<path class="st1" d="M120.3,102.2c0.1-0.2,0.2-0.3,0.2-0.3C120.4,102,120.3,102.1,120.3,102.2z"/>
	<linearGradient id="SVGID_3_" gradientUnits="userSpaceOnUse" x1="121.4771" y1="102.6038" x2="121.8" y2="102.6038">
		<stop  offset="0" style="stop-color:#D7F2F0;stop-opacity:0.1"/>
		<stop  offset="1" style="stop-color:#256B74"/>
	</linearGradient>
	<path class="st2" d="M121.5,102.7c0.1-0.1,0.3-0.1,0.3-0.2C121.7,102.5,121.6,102.6,121.5,102.7z"/>
</g>
<linearGradient id="SVGID_4_" gradientUnits="userSpaceOnUse" x1="-38.6235" y1="74.3635" x2="-38.6235" y2="45.85">
	<stop  offset="0" style="stop-color:#D7F2F0"/>
	<stop  offset="1" style="stop-color:#256B74"/>
</linearGradient>
<rect x="-51.9" y="45.9" class="st3" width="26.6" height="28.5"/>
</svg>
